<svg width="179" height="179" viewBox="0 0 179 179" fill="none" xmlns="http://www.w3.org/2000/svg">
<path d="M69.3743 1.91701C44.4409 7.25034 21.1076 25.7837 9.24094 49.7837C-12.6257 93.917 5.64094 147.25 50.0409 169.25C75.1076 181.65 103.641 181.517 129.374 168.984C145.374 161.117 161.374 145.117 169.241 129.117C187.774 91.117 178.574 47.7837 146.041 20.0503C137.241 12.4503 120.308 4.18368 108.708 1.78368C97.1076 -0.616324 80.8409 -0.616324 69.3743 1.91701ZM60.9743 49.2503C66.8409 51.3837 70.9743 55.917 69.2409 58.0503C67.2409 60.4503 65.9076 60.317 61.5076 56.9837C56.4409 53.2503 52.0409 54.1837 48.9743 59.517C46.1743 64.317 36.9743 90.4503 37.7743 91.3837C38.0409 91.6503 40.0409 91.117 42.1743 90.317C44.3076 89.3837 51.5076 88.717 58.0409 88.5837C67.7743 88.5837 71.2409 89.117 76.5743 91.517C84.7076 95.2503 93.7743 95.2503 101.774 91.7837C112.174 87.117 127.908 86.8503 139.108 91.2503C141.241 92.0503 141.374 91.6503 140.574 88.317C138.841 80.717 130.308 59.117 128.308 56.717C125.774 53.7837 119.641 54.4503 115.908 57.917C114.574 59.117 112.574 59.7837 111.374 59.3837C105.108 56.9837 114.574 48.4503 123.508 48.4503C130.841 48.4503 133.641 51.117 138.574 62.9837C145.508 79.517 149.508 95.6503 148.574 102.45C146.308 119.65 142.441 125.25 130.841 128.584C118.041 132.45 103.641 128.85 98.5743 120.584C97.1076 118.317 94.9743 112.984 93.6409 108.85C90.7076 98.717 88.0409 98.717 85.1076 108.85C83.7743 112.984 81.6409 118.317 80.1743 120.584C75.1076 128.85 60.7076 132.45 47.9076 128.584C35.5076 125.117 30.7076 116.984 30.4409 99.2503C30.3076 93.117 31.3743 87.6503 35.2409 76.4503C44.0409 50.317 49.2409 44.717 60.9743 49.2503Z" fill="#443828"/>
<path d="M50.0409 95.3837C48.5743 95.6503 45.1076 96.5837 42.1743 97.3837L36.9743 98.5837L37.7743 106.85C38.4409 113.784 39.1076 115.65 42.4409 118.584C49.6409 124.984 66.7076 125.25 72.7076 119.25C74.4409 117.517 76.8409 112.717 78.1743 108.584C80.9743 99.7837 80.8409 99.6503 70.1743 96.4503C63.7743 94.5837 55.6409 94.0503 50.0409 95.3837Z" fill="#443828"/>
<path d="M106.974 96.8503C103.108 98.317 99.641 99.7837 99.1076 100.317C97.5076 101.917 102.841 116.05 106.308 119.25C110.574 123.117 119.374 124.584 127.908 122.45C136.974 120.317 140.041 116.584 140.974 106.717L141.774 98.717L136.574 97.117C126.574 94.317 114.574 94.1837 106.974 96.8503Z" fill="#443828"/>
</svg>
