<svg width="30" height="30" viewBox="0 0 200 200" fill="none" xmlns="http://www.w3.org/2000/svg">
<rect x="87.1094" y="120.312" width="25.3906" height="79.6875" rx="5" fill="#9B4912"/>
<path d="M164.159 154.984C142.946 137.526 125.828 115.619 114.017 90.8145C111.491 85.5091 106.169 82.1022 100.293 82.1018H100.097C94.2206 82.1018 88.8993 85.5088 86.3728 90.8145C74.5612 115.619 57.4435 137.525 36.2304 154.984C30.49 159.708 30.0716 168.351 35.3285 173.609L39.3116 177.592C43.0476 181.328 49.1052 181.328 52.8412 177.592C56.5774 173.856 62.6348 173.856 66.3707 177.592C70.1066 181.328 76.1643 181.328 79.9002 177.592C83.6361 173.856 89.6938 173.856 93.4297 177.592C97.1656 181.328 103.223 181.328 106.959 177.592C110.695 173.856 116.753 173.856 120.489 177.592C124.225 181.328 130.282 181.328 134.018 177.592C137.754 173.856 143.812 173.856 147.548 177.592C151.284 181.328 157.341 181.328 161.077 177.592L165.06 173.609C170.318 168.352 169.899 159.709 164.159 154.984Z" fill="url(#paint0_linear_32_2)"/>
<path d="M164.16 154.983C160.027 151.584 156.043 148.008 152.219 144.265C136.438 128.837 123.506 110.742 114.018 90.8157C111.489 85.51 106.169 82.1038 100.294 82.1002H100.096C97.6164 82.1002 95.2288 82.7086 93.1136 83.8122C90.2238 85.319 87.8327 87.7526 86.3719 90.8157C76.8842 110.742 63.952 128.837 48.1709 144.265L48.3548 144.449C51.5382 147.633 56.6954 147.633 59.8752 144.449C61.467 142.857 63.5503 142.065 65.6372 142.065C67.7206 142.065 69.804 142.857 71.3957 144.449C72.9874 146.041 75.0707 146.837 77.1541 146.837C79.241 146.837 81.3244 146.041 82.9161 144.449C84.5043 142.857 86.5912 142.065 88.6745 142.065C90.7579 142.065 92.8448 142.857 94.4365 144.449C96.0282 146.041 98.1116 146.837 100.195 146.837C102.278 146.837 104.362 146.041 105.953 144.449C107.545 142.857 109.632 142.065 111.715 142.065C113.799 142.065 115.886 142.857 117.474 144.449C119.065 146.041 121.149 146.837 123.236 146.837C125.319 146.837 127.403 146.041 128.994 144.449C130.586 142.857 132.669 142.065 134.753 142.065H134.765C135.481 142.066 136.16 142.376 136.667 142.883C140.916 147.128 145.367 151.166 150.005 154.983C155.745 159.708 156.163 168.35 150.907 173.609L147.228 177.288C147.338 177.383 147.444 177.486 147.55 177.592C149.418 179.46 151.865 180.393 154.313 180.393C156.761 180.393 159.208 179.46 161.079 177.592L165.062 173.609C170.318 168.35 169.901 159.708 164.16 154.983Z" fill="url(#paint1_linear_32_2)"/>
<path d="M154.657 116.355C136.595 101.49 122.02 82.8379 111.963 61.718C109.812 57.2007 105.282 54.2999 100.278 54.2999H100.111C95.1077 54.2999 90.577 57.2007 88.4257 61.718C78.3688 82.8379 63.794 101.49 45.7323 116.355C40.8447 120.377 40.4881 127.737 44.9644 132.212L48.3557 135.604C51.5367 138.785 56.6945 138.785 59.8755 135.604C63.0564 132.423 68.2142 132.423 71.3952 135.604C74.5761 138.785 79.7339 138.785 82.9149 135.604C86.0958 132.423 91.2537 132.423 94.4346 135.604C97.6155 138.785 102.773 138.785 105.954 135.604C109.135 132.423 114.293 132.423 117.474 135.604C120.655 138.785 125.813 138.785 128.994 135.604C132.175 132.423 137.333 132.423 140.513 135.604C143.694 138.785 148.852 138.785 152.033 135.604L155.425 132.212C159.9 127.737 159.544 120.377 154.657 116.355Z" fill="url(#paint2_linear_32_2)"/>
<path d="M154.656 116.354C149.325 111.968 144.286 107.24 139.57 102.198C128.338 90.2074 119.026 76.5534 111.963 61.7193C109.812 57.1988 105.281 54.2983 100.28 54.2983H100.11C97.5737 54.2983 95.1614 55.0447 93.1169 56.3676C91.0875 57.682 89.4635 59.5349 88.4267 61.7193C81.3524 76.5752 72.0356 90.225 60.8193 102.198L61.8451 103.228C64.1973 105.58 68.0139 105.58 70.3661 103.228C71.5439 102.05 73.0861 101.459 74.6283 101.459C76.1705 101.459 77.7127 102.05 78.8906 103.228C80.0684 104.402 81.6106 104.993 83.1528 104.993C84.695 104.993 86.2372 104.402 87.4115 103.228C88.5858 102.05 90.128 101.459 91.6702 101.459C93.2124 101.459 94.7546 102.05 95.9325 103.228C97.1103 104.402 98.6525 104.993 100.195 104.993C101.737 104.993 103.279 104.402 104.457 103.228C105.635 102.05 107.177 101.459 108.719 101.459C110.261 101.459 111.804 102.05 112.978 103.228C114.152 104.402 115.694 104.993 117.237 104.993C118.779 104.993 120.321 104.402 121.499 103.228L121.527 103.2C122.904 101.84 125.153 101.936 126.489 103.336C130.893 107.954 135.572 112.3 140.5 116.353C145.389 120.375 145.746 127.736 141.268 132.21L139.043 134.439C139.567 134.761 140.062 135.15 140.515 135.603C142.103 137.194 144.19 137.99 146.273 137.99C148.356 137.99 150.443 137.194 152.035 135.603L155.424 132.21C159.902 127.736 159.544 120.376 154.656 116.354Z" fill="url(#paint3_linear_32_2)"/>
<path d="M140.484 80.1399C125.555 67.8533 113.871 52.0897 106.457 34.2331L100.194 19.1508L93.9323 34.2328C86.518 52.0894 74.8336 67.8529 59.9047 80.1395C56.2891 83.1153 56.0252 88.5597 59.3367 91.8708L61.8456 94.3797C64.1988 96.7329 68.0143 96.7329 70.3676 94.3797C72.7208 92.0264 76.5363 92.0264 78.8896 94.3797C81.2428 96.7329 85.0583 96.7329 87.4116 94.3797C89.7648 92.0264 93.5803 92.0264 95.9336 94.3797C98.2868 96.7329 102.102 96.7329 104.456 94.3797C106.809 92.0264 110.624 92.0264 112.978 94.3797C115.331 96.7329 119.146 96.7329 121.5 94.3797C123.853 92.0264 127.668 92.0264 130.022 94.3797C132.375 96.7329 136.19 96.7329 138.544 94.3797L141.053 91.8708C144.363 88.5597 144.1 83.1157 140.484 80.1399Z" fill="url(#paint4_linear_32_2)"/>
<path d="M141.053 91.87L138.545 94.3813C137.37 95.5592 135.828 96.1464 134.286 96.1464C132.744 96.1464 131.202 95.5592 130.024 94.3813C128.987 93.3405 127.603 92.7173 126.137 92.6305L126.897 91.87C130.208 88.5592 129.946 83.1156 126.331 80.1408C122.132 76.6851 118.177 72.9435 114.494 68.9426C109.674 63.707 104.018 59.3867 98.155 55.3537C97.4274 54.8532 96.8802 54.0488 96.7323 52.9403L96.6156 52.0631C96.0673 47.96 92.8096 45.0277 89.0391 44.5643C90.5105 41.8195 91.8688 39.011 93.1174 36.1495C93.3968 35.5128 93.6692 34.8726 93.9345 34.2324L100.195 19.15L106.456 34.2324C107.92 37.7624 109.554 41.2111 111.351 44.5643C118.637 58.2187 128.536 70.3069 140.487 80.1408C144.102 83.1156 144.363 88.5592 141.053 91.87Z" fill="url(#paint5_linear_32_2)"/>
<path d="M88.9516 89.009C95.8812 89.009 101.499 83.3914 101.499 76.4617C101.499 69.532 95.8812 63.9144 88.9516 63.9144C82.0219 63.9144 76.4043 69.532 76.4043 76.4617C76.4043 83.3914 82.0219 89.009 88.9516 89.009Z" fill="url(#paint6_linear_32_2)"/>
<path d="M88.9521 63.9148C87.7862 63.9148 86.6589 64.0771 85.5879 64.3746C90.883 65.8454 94.771 70.698 94.771 76.4617C94.771 82.2255 90.883 87.0781 85.5879 88.5492C86.6589 88.8467 87.7862 89.009 88.9521 89.009C95.8817 89.009 101.499 83.3913 101.499 76.4617C101.499 69.5321 95.8817 63.9148 88.9521 63.9148Z" fill="url(#paint7_linear_32_2)"/>
<path d="M121.007 131.683C127.937 131.683 133.554 126.066 133.554 119.136C133.554 112.206 127.937 106.589 121.007 106.589C114.078 106.589 108.46 112.206 108.46 119.136C108.46 126.066 114.078 131.683 121.007 131.683Z" fill="url(#paint8_linear_32_2)"/>
<path d="M121.008 106.589C119.842 106.589 118.715 106.751 117.644 107.049C122.939 108.519 126.827 113.372 126.827 119.136C126.827 124.899 122.939 129.752 117.644 131.223C118.715 131.521 119.842 131.683 121.008 131.683C127.937 131.683 133.555 126.065 133.555 119.136C133.555 112.206 127.937 106.589 121.008 106.589Z" fill="url(#paint9_linear_32_2)"/>
<path d="M72.8246 172.755C79.7543 172.755 85.3719 167.137 85.3719 160.207C85.3719 153.278 79.7543 147.66 72.8246 147.66C65.8949 147.66 60.2773 153.278 60.2773 160.207C60.2773 167.137 65.8949 172.755 72.8246 172.755Z" fill="url(#paint10_linear_32_2)"/>
<path d="M72.8251 147.661C71.6593 147.661 70.532 147.823 69.4609 148.12C74.756 149.591 78.6441 154.444 78.6441 160.207C78.6441 165.971 74.756 170.824 69.4609 172.295C70.532 172.592 71.6593 172.755 72.8251 172.755C79.7547 172.755 85.3724 167.137 85.3724 160.207C85.3724 153.278 79.7547 147.661 72.8251 147.661Z" fill="url(#paint11_linear_32_2)"/>
<path d="M80.211 128.819C85.0387 128.819 88.9523 124.906 88.9523 120.078C88.9523 115.25 85.0387 111.337 80.211 111.337C75.3833 111.337 71.4697 115.25 71.4697 120.078C71.4697 124.906 75.3833 128.819 80.211 128.819Z" fill="url(#paint12_linear_32_2)"/>
<path d="M121.008 168.949C125.836 168.949 129.749 165.036 129.749 160.208C129.749 155.38 125.836 151.467 121.008 151.467C116.18 151.467 112.267 155.38 112.267 160.208C112.267 165.036 116.18 168.949 121.008 168.949Z" fill="url(#paint13_linear_32_2)"/>
<path d="M103.525 66.3892C108.353 66.3892 112.267 62.4756 112.267 57.6479C112.267 52.8202 108.353 48.9066 103.525 48.9066C98.6978 48.9066 94.7842 52.8202 94.7842 57.6479C94.7842 62.4756 98.6978 66.3892 103.525 66.3892Z" fill="url(#paint14_linear_32_2)"/>
<path d="M119.811 16.5839C123.079 14.1425 120.229 9.03456 116.435 10.534L115.613 10.859C110.346 12.941 104.524 9.52269 103.776 3.90925L103.659 3.03274C103.12 -1.01091 97.2703 -1.01091 96.7312 3.03274L96.6145 3.90925C95.866 9.52269 90.0443 12.941 84.7775 10.859L83.9551 10.534C80.1612 9.03421 77.311 14.1425 80.5793 16.5839C85.2437 20.0676 85.2437 27.0584 80.5793 30.5421C77.311 32.9835 80.1612 38.0914 83.9551 36.5921L84.7775 36.267C90.0443 34.185 95.866 37.6033 96.6145 43.2168L96.7312 44.0933C97.2703 48.1369 103.12 48.1369 103.659 44.0933L103.776 43.2168C104.524 37.6033 110.346 34.185 115.613 36.267L116.435 36.5921C120.229 38.0918 123.079 32.9835 119.811 30.5421C115.147 27.0588 115.147 20.068 119.811 16.5839Z" fill="url(#paint15_linear_32_2)"/>
<path d="M119.811 30.5425C115.147 27.0588 115.147 20.068 119.811 16.5842C119.904 16.5145 119.993 16.4424 120.077 16.3685C122.916 13.8564 120.121 9.07771 116.435 10.5343L115.613 10.8594C110.346 12.941 104.525 9.52304 103.776 3.90925L103.659 3.03274C103.12 -1.01091 97.2703 -1.01091 96.7312 3.03274L96.6145 3.90925C96.5618 4.30548 96.4824 4.6977 96.3768 5.08322C95.3351 8.87751 99.0601 12.3008 102.736 10.8969L102.833 10.859L103.655 10.534C105.452 9.82334 107.038 10.5962 107.862 11.8657C108.777 13.2759 108.751 15.2992 107.031 16.5839C102.367 20.0676 102.367 27.0584 107.031 30.5421C110.3 32.9835 107.449 38.0918 103.656 36.5921L102.833 36.267C102.801 36.2542 102.768 36.2415 102.736 36.2291C99.0601 34.8249 95.3351 38.2485 96.3768 42.0428C96.4808 42.422 96.5608 42.8135 96.6145 43.2168L96.7312 44.0933C97.2703 48.1369 103.12 48.1369 103.659 44.0933L103.776 43.2168C104.524 37.6033 110.346 34.185 115.612 36.2666L116.435 36.5917C120.229 38.0918 123.08 32.9838 119.811 30.5425Z" fill="url(#paint16_linear_32_2)"/>
<defs>
<linearGradient id="paint0_linear_32_2" x1="-10.9892" y1="131.248" x2="161.921" y2="131.248" gradientUnits="userSpaceOnUse">
<stop stop-color="#97D729"/>
<stop offset="0.565" stop-color="#02905D"/>
<stop offset="0.996" stop-color="#026841"/>
</linearGradient>
<linearGradient id="paint1_linear_32_2" x1="-84.2074" y1="131.247" x2="145.391" y2="131.247" gradientUnits="userSpaceOnUse">
<stop stop-color="#97D729"/>
<stop offset="0.565" stop-color="#02905D"/>
<stop offset="0.996" stop-color="#026841"/>
</linearGradient>
<linearGradient id="paint2_linear_32_2" x1="21.5521" y1="96.1446" x2="168.229" y2="96.1446" gradientUnits="userSpaceOnUse">
<stop stop-color="#97D729"/>
<stop offset="0.565" stop-color="#02905D"/>
<stop offset="0.996" stop-color="#026841"/>
</linearGradient>
<linearGradient id="paint3_linear_32_2" x1="2.9235" y1="96.1444" x2="152.201" y2="96.1444" gradientUnits="userSpaceOnUse">
<stop stop-color="#97D729"/>
<stop offset="0.565" stop-color="#02905D"/>
<stop offset="0.996" stop-color="#026841"/>
</linearGradient>
<linearGradient id="paint4_linear_32_2" x1="63.1097" y1="57.6479" x2="148.965" y2="57.6479" gradientUnits="userSpaceOnUse">
<stop stop-color="#97D729"/>
<stop offset="0.565" stop-color="#02905D"/>
<stop offset="0.996" stop-color="#026841"/>
</linearGradient>
<linearGradient id="paint5_linear_32_2" x1="25.5616" y1="57.6482" x2="155.025" y2="57.6482" gradientUnits="userSpaceOnUse">
<stop stop-color="#97D729"/>
<stop offset="0.565" stop-color="#02905D"/>
<stop offset="0.996" stop-color="#026841"/>
</linearGradient>
<linearGradient id="paint6_linear_32_2" x1="69.4216" y1="76.4617" x2="103.081" y2="76.4617" gradientUnits="userSpaceOnUse">
<stop stop-color="#62DBFB"/>
<stop offset="0.436" stop-color="#01D0FB"/>
<stop offset="0.596" stop-color="#01B9FB"/>
<stop offset="0.93" stop-color="#017FFB"/>
<stop offset="1" stop-color="#0172FB"/>
</linearGradient>
<linearGradient id="paint7_linear_32_2" x1="64.6469" y1="76.4617" x2="100.202" y2="76.4617" gradientUnits="userSpaceOnUse">
<stop stop-color="#62DBFB"/>
<stop offset="0.436" stop-color="#01D0FB"/>
<stop offset="0.596" stop-color="#01B9FB"/>
<stop offset="0.93" stop-color="#017FFB"/>
<stop offset="1" stop-color="#0172FB"/>
</linearGradient>
<linearGradient id="paint8_linear_32_2" x1="108.46" y1="119.136" x2="140.244" y2="119.136" gradientUnits="userSpaceOnUse">
<stop stop-color="#FE646F"/>
<stop offset="0.521" stop-color="#E41F2D"/>
<stop offset="1" stop-color="#C41926"/>
</linearGradient>
<linearGradient id="paint9_linear_32_2" x1="95.7214" y1="119.136" x2="133.391" y2="119.136" gradientUnits="userSpaceOnUse">
<stop stop-color="#FE646F"/>
<stop offset="0.521" stop-color="#E41F2D"/>
<stop offset="1" stop-color="#C41926"/>
</linearGradient>
<linearGradient id="paint10_linear_32_2" x1="60.2777" y1="160.207" x2="92.0613" y2="160.207" gradientUnits="userSpaceOnUse">
<stop stop-color="#FEF056"/>
<stop offset="0.521" stop-color="#F4D902"/>
<stop offset="1" stop-color="#FE9738"/>
</linearGradient>
<linearGradient id="paint11_linear_32_2" x1="47.5391" y1="160.207" x2="92.8029" y2="160.207" gradientUnits="userSpaceOnUse">
<stop stop-color="#FEF056"/>
<stop offset="0.521" stop-color="#F4D902"/>
<stop offset="1" stop-color="#FE9738"/>
</linearGradient>
<linearGradient id="paint12_linear_32_2" x1="72.122" y1="120.078" x2="95.8444" y2="120.078" gradientUnits="userSpaceOnUse">
<stop stop-color="#EAF6FF"/>
<stop offset="0.521" stop-color="#D8ECFE"/>
<stop offset="1" stop-color="#B3DAFE"/>
</linearGradient>
<linearGradient id="paint13_linear_32_2" x1="112.919" y1="160.208" x2="136.641" y2="160.208" gradientUnits="userSpaceOnUse">
<stop stop-color="#EAF6FF"/>
<stop offset="0.521" stop-color="#D8ECFE"/>
<stop offset="1" stop-color="#B3DAFE"/>
</linearGradient>
<linearGradient id="paint14_linear_32_2" x1="95.4361" y1="57.6479" x2="119.159" y2="57.6479" gradientUnits="userSpaceOnUse">
<stop stop-color="#EAF6FF"/>
<stop offset="0.521" stop-color="#D8ECFE"/>
<stop offset="1" stop-color="#B3DAFE"/>
</linearGradient>
<linearGradient id="paint15_linear_32_2" x1="77.0269" y1="23.5634" x2="122.138" y2="23.5634" gradientUnits="userSpaceOnUse">
<stop stop-color="#FEF056"/>
<stop offset="0.521" stop-color="#F4D902"/>
<stop offset="1" stop-color="#FE9738"/>
</linearGradient>
<linearGradient id="paint16_linear_32_2" x1="66.6808" y1="23.5634" x2="122.254" y2="23.5634" gradientUnits="userSpaceOnUse">
<stop stop-color="#FEF056"/>
<stop offset="0.521" stop-color="#F4D902"/>
<stop offset="1" stop-color="#FE9738"/>
</linearGradient>
</defs>
</svg>
