<svg xmlns="http://www.w3.org/2000/svg" version="1.1" xmlns:xlink="http://www.w3.org/1999/xlink" width="25" height="25" x="0" y="0" viewBox="0 0 64 64" style="enable-background:new 0 0 512 512" xml:space="preserve" class=""><g><g data-name="4_christmas wreath"><path fill="#009c2c" d="M56.737 29.382a10.832 10.832 0 0 1 0 13.24l-.009.01a10.383 10.383 0 0 1 .1 1.47 10.8 10.8 0 0 1-6.73 10 10.8 10.8 0 0 1-10 6.73 10.519 10.519 0 0 1-1.469-.1l-.01.009a10.835 10.835 0 0 1-13.24 0l-.01-.009a10.523 10.523 0 0 1-1.47.1 10.8 10.8 0 0 1-10-6.73 10.8 10.8 0 0 1-6.731-10 10.386 10.386 0 0 1 .1-1.47l-.011-.01a10.838 10.838 0 0 1 0-13.24l.011-.01a10.372 10.372 0 0 1-.1-1.469 10.8 10.8 0 0 1 6.731-10 10.8 10.8 0 0 1 10-6.731 10.23 10.23 0 0 1 1.47.1l.01-.011a10.835 10.835 0 0 1 13.24 0l.01.011a10.226 10.226 0 0 1 1.469-.1 10.8 10.8 0 0 1 10 6.731 10.8 10.8 0 0 1 6.73 10 10.369 10.369 0 0 1-.1 1.469zM46.757 36l-.009-.019a15.63 15.63 0 0 1-2.81-8.641v-.02a15.553 15.553 0 0 1-7.37-5.36h-.01a15.629 15.629 0 0 1-9.12 0 15.763 15.763 0 0 1-3.29 3.231 15.348 15.348 0 0 1-4.09 2.129v.02a15.63 15.63 0 0 1-2.81 8.641l-.011.019.011.021a15.628 15.628 0 0 1 2.81 8.639v.02a15.579 15.579 0 0 1 7.37 5.36h.01a15.651 15.651 0 0 1 9.12 0 15.724 15.724 0 0 1 3.289-3.229 15.331 15.331 0 0 1 4.091-2.131v-.02a15.628 15.628 0 0 1 2.81-8.639z" opacity="1" data-original="#038c3b" class=""></path><g fill="#036b2d"><path d="M56.737 42.622a10.834 10.834 0 0 0 0-13.239l-.009-.011a10.5 10.5 0 0 0 .1-1.469 10.8 10.8 0 0 0-6.73-10 10.777 10.777 0 0 0-5.756-5.851A28.489 28.489 0 0 1 25.7 60.97a10.827 10.827 0 0 0 12.918-.228l.011-.01a10.366 10.366 0 0 0 1.47.1 10.8 10.8 0 0 0 10-6.731 10.8 10.8 0 0 0 6.73-10 10.5 10.5 0 0 0-.1-1.469zM16 20.005l-3.723.745c-.064.111-.133.227-.192.334-.233.423-.425.807-.578 1.136a.663.663 0 0 0 .751.929l4.181-.951z" fill="#036b2d" opacity="1" data-original="#036b2d" class=""></path><path d="M36 13.005a7 7 0 0 1-4 1 7 7 0 0 1-4-1s-7 0-11 12l.32 2.242a.542.542 0 0 0 1.049.1c1.248-3.663 4.208-9.8 8.868-12.132A9.287 9.287 0 0 0 32 16.325a9.29 9.29 0 0 0 4.763-1.107c4.66 2.328 7.62 8.469 8.868 12.132a.542.542 0 0 0 1.049-.1l.32-2.245c-4-12-11-12-11-12z" fill="#036b2d" opacity="1" data-original="#036b2d" class=""></path></g><path fill="#025022" d="M51.915 21.084c-.059-.107-.128-.223-.192-.334L48 20.005l-.439 2.195 4.181.951a.663.663 0 0 0 .751-.929 18.223 18.223 0 0 0-.578-1.138z" opacity="1" data-original="#025022" class=""></path><path fill="#fc9e15" d="M8 27.005a3.006 3.006 0 1 1-.8.11 3 3 0 0 1 .8-.11z" opacity="1" data-original="#fc9e15" class=""></path><path fill="#FEF056" d="M14 51.005a3 3 0 0 1 1.38 5.66 2.907 2.907 0 0 1-1.38.34 3 3 0 0 1-3-3 2.907 2.907 0 0 1 .34-1.38 3.009 3.009 0 0 1 2.66-1.62zM17.97 37.165a3 3 0 0 1 2.03 2.84 2.918 2.918 0 0 1-.35 1.41 3 3 0 1 1-2.65-4.41 3.082 3.082 0 0 1 .97.16z" opacity="1" data-original="#FEF056" class=""></path><circle cx="27" cy="54.005" r="3" fill="#fc9e15" opacity="1" data-original="#fc9e15" class=""></circle><path fill="#FEF056" d="M46.94 58.385a3.179 3.179 0 0 1 .06.62 2.975 2.975 0 1 1-.06-.62zM44.37 41.335a3 3 0 1 1-1.37-.33 2.991 2.991 0 0 1 1.37.33z" opacity="1" data-original="#FEF056" class=""></path><path fill="#fc9e15" d="M58.13 40.225a3 3 0 0 1-1.13 5.78c-.11 0-.23-.01-.34-.02a3 3 0 0 1 .34-5.98 3.033 3.033 0 0 1 1.13.22z" opacity="1" data-original="#fc9e15" class=""></path><path fill="#FEF056" d="M56.83 28.005v.02h.01a3.145 3.145 0 0 1 .16.98 2.815 2.815 0 0 1-.07.65 2.993 2.993 0 1 1-.1-1.66z" opacity="1" data-original="#FEF056" class=""></path><path fill="#a51717" d="M56 9.005a8.615 8.615 0 0 1-7.89 5 16.913 16.913 0 0 0-7.65-3.89C46.85 7.785 56 9.005 56 9.005z" opacity="1" data-original="#a51717"></path><path fill="#ef4545" d="m53 21.005-5-1-1 5c-4-12-11-12-11-12a10.239 10.239 0 0 1 4.46-2.89 16.913 16.913 0 0 1 7.65 3.89 18.86 18.86 0 0 1 3.94 4.94 13.913 13.913 0 0 1 .95 2.06z" opacity="1" data-original="#ef4545" class=""></path><path fill="#FEF056" d="M56 9.005s-9.15-1.22-15.54 1.11a10.239 10.239 0 0 0-4.46 2.89l-1-6A37.913 37.913 0 0 1 47 1s7 0 9 8.005z" opacity="1" data-original="#FEF056" class=""></path><path fill="#ef4545" d="m35 7.005 1 6a7 7 0 0 1-4 1 7 7 0 0 1-4-1l1-6a4.38 4.38 0 0 1 3-1 4.38 4.38 0 0 1 3 1z" opacity="1" data-original="#ef4545" class=""></path><path fill="#fc9e15" d="M27 19.005a3 3 0 0 1 3 3 2.206 2.206 0 0 1-.05.51 3 3 0 1 1-2.95-3.51z" opacity="1" data-original="#fc9e15" class=""></path><path fill="#FEF056" d="M41 23.005a3 3 0 0 1 3 3 3.027 3.027 0 0 1-.26 1.24h-.01a3 3 0 0 1-5.73-1.24 2.942 2.942 0 0 1 .62-1.82 2.984 2.984 0 0 1 2.38-1.18z" opacity="1" data-original="#FEF056" class=""></path><path fill="#a51717" d="M8 9.005a8.615 8.615 0 0 0 7.89 5 16.913 16.913 0 0 1 7.65-3.89C17.15 7.785 8 9.005 8 9.005z" opacity="1" data-original="#a51717"></path><path fill="#ef4545" d="m11 21.005 5-1 1 5c4-12 11-12 11-12a10.239 10.239 0 0 0-4.46-2.89 16.913 16.913 0 0 0-7.65 3.89 18.86 18.86 0 0 0-3.94 4.94 13.913 13.913 0 0 0-.95 2.06z" opacity="1" data-original="#ef4545" class=""></path><path fill="#FEF056" d="M8 9.005s9.15-1.22 15.54 1.11a10.239 10.239 0 0 1 4.46 2.89l1-6A37.913 37.913 0 0 0 17 1s-7 0-9 8.005z" opacity="1" data-original="#FEF056" class=""></path></g></g></svg>